Coordinates
version=1
nRows=22
nColumns=24
inDegrees=yes

Units are S.I. units (second, meters, Newtons, ...)
Angles are in degrees.

endheader
time	pelvis_tilt	pelvis_list	pelvis_rotation	pelvis_tx	pelvis_ty	pelvis_tz	hip_flexion_r	hip_adduction_r	hip_rotation_r	knee_angle_r	ankle_angle_r	subtalar_angle_r	mtp_angle_r	hip_flexion_l	hip_adduction_l	hip_rotation_l	knee_angle_l	ankle_angle_l	subtalar_angle_l	mtp_angle_l	lumbar_extension	lumbar_bending	lumbar_rotation
      2.10000000	     15.27674548	      3.13689882	     -5.09534223	      0.47110444	      0.95021582	      0.26231733	      6.05607088	     -6.41226426	     -2.13217924	    -70.62173804	     18.60949750	      5.47749046	     48.70241517	     -5.50935429	      7.42290486	    -10.52696277	    -18.16660127	     20.44813884	      5.20215063	     14.38346031	    -30.93499793	     -6.61865751	      8.53893043
      2.10500000	     15.45758191	      3.20412897	     -4.96849138	      0.47771981	      0.95113157	      0.26205665	      6.47589657	     -6.50269043	     -2.38021731	    -70.07151513	     18.99170195	      5.39816494	     48.60323292	     -6.47238739	      7.53329433	    -10.47270622	    -17.58208842	     20.54203560	      5.69747656	     14.11032712	    -31.10838241	     -6.57800259	      8.31694614
      2.11000000	     15.59979307	      3.19697917	     -4.73700366	      0.48433037	      0.95193067	      0.26191261	      6.88963504	     -6.49004886	     -2.72550081	    -69.51491651	     19.49228196	      5.69835717	     47.57543580	     -7.34438277	      7.51144427	    -10.44949324	    -17.10628964	     20.88941390	      6.33609271	     12.83100339	    -31.25565801	     -6.42548358	      8.00339613
      2.11500000	     15.83621348	      3.16804837	     -4.53365404	      0.49110955	      0.95282938	      0.26157476	      7.16462606	     -6.48297662	     -3.05491170	    -68.86463073	     19.84887106	      6.08237826	     47.41354464	     -8.33159044	      7.50393071	    -10.40610146	    -16.62502761	     21.06314601	      6.76449594	     12.73648250	    -31.49826300	     -6.25737647	      7.79803681
      2.12000000	     15.87317885	      3.14466615	     -4.35355427	      0.49732943	      0.95323854	      0.26163062	      7.73603300	     -6.37699023	     -3.25587437	    -68.24806654	     20.19399868	      5.95055441	     47.14917071	     -9.01243092	      7.41328777	    -10.55641722	    -16.22083369	     21.37411223	      7.55679803	     12.59076611	    -31.55654151	     -6.11710694	      7.57494886
      2.12500000	     15.98906392	      3.19104813	     -4.25196119	      0.50341133	      0.95366481	      0.26169102	      8.26616728	     -6.36465005	     -3.38569376	    -67.60628894	     20.43451411	      5.72893011	     46.96831044	     -9.79794245	      7.44467399	    -10.70146781	    -15.76133105	     21.60915072	      8.15626618	     12.39827530	    -31.70838470	     -6.06668638	      7.33739187
      2.13000000	     16.17559430	      3.19248487	     -4.06982261	      0.50990411	      0.95426575	      0.26156766	      8.57645521	     -6.34975130	     -3.65130080	    -66.76133563	     20.80918773	      5.70995403	     46.65084034	    -10.72640896	      7.43638201	    -10.71513632	    -15.23823910	     21.77043936	      8.69869900	     12.05547291	    -31.91412699	     -5.94650899	      7.16908237
      2.13500000	     16.37020317	      3.25947814	     -3.94400765	      0.51642746	      0.95478203	      0.26140747	      8.87030208	     -6.42713096	     -3.84614837	    -65.89930699	     21.16942324	      5.86048381	     46.34977369	    -11.73690564	      7.54339138	    -10.62216782	    -14.53175634	     21.82911021	      9.03469966	     11.79688712	    -32.10181276	     -5.89606783	      6.94926780
      2.14000000	     16.56164502	      3.30638689	     -3.69627140	      0.52280135	      0.95514685	      0.26104920	      9.14775744	     -6.51896338	     -4.17699138	    -64.99547541	     21.53542810	      6.18660997	     46.05361929	    -12.68153912	      7.60319045	    -10.35074568	    -13.98114248	     22.02755194	      9.32877474	     11.60508008	    -32.32476319	     -5.75224001	      6.60535173
      2.14500000	     16.68993596	      3.31279627	     -3.42437494	      0.52902797	      0.95537095	      0.26061803	      9.47379269	     -6.53580645	     -4.45335952	    -63.99860236	     21.78948337	      6.50081429	     45.64588531	    -13.52321906	      7.62347732	     -9.98924767	    -13.47522927	     22.24247243	      9.35991997	     11.27886521	    -32.49819522	     -5.56232760	      6.31097982
      2.15000000	     16.90138490	      3.36180646	     -3.23724769	      0.53546533	      0.95572223	      0.26036406	      9.68232245	     -6.59701254	     -4.68284544	    -62.97008259	     22.07341604	      6.56120092	     45.24175987	    -14.50523030	      7.69196928	     -9.68752113	    -12.86758802	     22.27391989	      9.49446623	     10.93996333	    -32.72312046	     -5.46386259	      6.12603044
      2.15500000	     17.00033195	      3.43901743	     -3.08518941	      0.54176227	      0.95580239	      0.26027137	     10.04762262	     -6.68273257	     -4.92121856	    -61.94864505	     22.25012446	      6.52827406	     45.03045533	    -15.30962156	      7.76676586	     -9.47254102	    -12.34707934	     22.37081601	      9.75035497	     10.77484681	    -32.83812602	     -5.40694646	      5.87814823
      2.16000000	     17.05659072	      3.48207073	     -2.85526307	      0.54807097	      0.95568608	      0.26011046	     10.41721874	     -6.74698359	     -5.26006125	    -60.85190354	     22.45772454	      6.52341251	     44.75506263	    -16.08676987	      7.81089847	     -9.09765212	    -11.77537987	     22.48767914	      9.67392064	     10.59617144	    -32.92326087	     -5.28707915	      5.62576546
      2.16500000	     17.07255252	      3.53143410	     -2.63009981	      0.55420661	      0.95543994	      0.25990963	     10.80362662	     -6.78987679	     -5.47383445	    -59.69975821	     22.80279675	      6.74331498	     43.62285659	    -16.71071110	      7.84651052	     -8.74751535	    -11.43636575	     22.69975314	      9.62670814	      9.66467850	    -32.96826373	     -5.16019795	      5.36241783
      2.17000000	     17.22533154	      3.49157095	     -2.39299916	      0.56057392	      0.95542007	      0.25978504	     10.93840987	     -6.74059610	     -5.76778051	    -58.36158717	     23.04154191	      6.89892882	     43.02356688	    -17.53507537	      7.76412004	     -8.57611523	    -11.03163653	     23.08001911	     10.03077832	      7.59446344	    -33.14189361	     -4.94947224	      5.12193601
      2.17500000	     17.24228448	      3.48080917	     -2.16322235	      0.56672201	      0.95514126	      0.25969256	     11.22772847	     -6.67938343	     -5.94666550	    -56.96384428	     23.13403009	      6.85894637	     43.05926100	    -18.14995855	      7.70918216	     -8.31430488	    -10.69663575	     23.31668184	     10.00205352	      7.61742331	    -33.19555407	     -4.76843475	      4.93649791
      2.18000000	     17.33999755	      3.54695793	     -1.99665316	      0.57294392	      0.95488724	      0.25946793	     11.43069998	     -6.75560494	     -6.11718443	    -55.59814033	     23.21784065	      6.91711342	     43.05656874	    -18.89528922	      7.78291764	     -7.91279434	    -10.27686565	     23.26667113	      9.85630352	      7.50695335	    -33.32895627	     -4.67901371	      4.73279791
      2.18500000	     17.47459532	      3.53939867	     -1.81428063	      0.57925599	      0.95464382	      0.25932796	     11.52039646	     -6.73305738	     -6.32240373	    -54.09311352	     23.20889853	      6.87649954	     43.01230825	    -19.70098468	      7.76555332	     -7.54841810	     -9.84663975	     23.44968673	      9.67443265	      7.55826165	    -33.48664372	     -4.52033700	      4.53029097
      2.19000000	     17.61272692	      3.43858588	     -1.56457061	      0.58545197	      0.95447604	      0.25935763	     11.51416051	     -6.57691133	     -6.58951344	    -52.42229984	     23.20194063	      6.82116369	     42.96069668	    -20.43591392	      7.59133328	     -7.24733924	     -9.55958786	     23.67496533	      9.64877936	      7.67953934	    -33.66412704	     -4.24955924	      4.33078615
      2.19500000	     17.68265748	      3.32164990	     -1.28854596	      0.59176247	      0.95413959	      0.25939674	     11.58206533	     -6.39065138	     -6.82744688	    -50.77572263	     23.12321512	      6.80289319	     42.89772591	    -21.05428711	      7.36638817	     -7.02803785	     -9.36932252	     23.93489933	      9.78180091	      7.69932163	    -33.76158925	     -3.97130469	      4.11253661
      2.20000000	     17.85570516	      3.27077448	     -1.05814470	      0.59796659	      0.95380736	      0.25950241	     11.54539820	     -6.26169822	     -6.95635555	    -49.11949700	     22.94674618	      6.62595183	     42.82712088	    -21.78594186	      7.22164423	     -6.81718059	     -9.14712381	     24.18410223	      9.92177961	      7.67006052	    -33.97511575	     -3.77056214	      3.89157737
      2.20500000	     17.98315252	      3.25292142	     -0.87186959	      0.60417936	      0.95339523	      0.25950050	     11.50765309	     -6.19206176	     -7.13349109	    -47.37172023	     22.70390893	      6.25880339	     42.73288743	    -22.46703860	      7.14229433	     -6.56042811	     -8.92050757	     24.33434163	      9.94223736	      7.69797708	    -34.14375665	     -3.58962801	      3.70129231
